<mxfile host="app.diagrams.net" modified="2023-08-24T08:06:22.757Z" agent="Mozilla/5.0 (Macintosh; Intel Mac OS X 10_15_7) AppleWebKit/537.36 (KHTML, like Gecko) Chrome/116.0.0.0 Safari/537.36" version="21.6.7" etag="PoOJ-11Whg0tMpQ-0rLC" type="github">
  <diagram name="Page-1" id="vxMBaUitX8i_u9ZpKZ9H">
    <mxGraphModel>
      <root>
        <mxCell id="0" />
        <mxCell id="1" parent="0" />
      </root>
    </mxGraphModel>
  </diagram>
</mxfile>
